ffmpeg started on 2026-03-27 at 16:56:24
Report written to "D:\Convert\FFMetrics\reports\ssim_report-6.txt"
Log level: 32
Command line:
ffmpeg -hide_banner -nostdin -r 24000/1001 -i "F:\\Convert\\files\\Glass.Heart.s01e01.HD1080p.WEBRip.Rus.AniDub.com_HEVC(72).mkv" -r 24000/1001 -i "F:\\Convert\\files\\Glass.Heart.s01e01.HD1080p.WEBRip.Rus.AniDub.com.mp4" -lavfi "[0:v]settb=AVTB,setpts=PTS-STARTPTS,format=pix_fmts=yuv420p10le,fps=24000/1001,scale=1920:1080:flags=lanczos:param0=3:out_range=limited:out_chroma_loc=left,setsar=1/1,setdar=(1920/1080)*(1/1)[main];[1:v]settb=AVTB,setpts=PTS-STARTPTS,format=pix_fmts=yuv420p,fps=24000/1001,scale=1920:1080:flags=lanczos:param0=3:out_range=limited:out_chroma_loc=left,setsar=1/1,setdar=(1920/1080)*(1/1)[ref];[main][ref]ssim=eof_action=endall:stats_file='D\\:/Convert/FFMetrics/logs/ssim_logfile-6.txt'" -f null -
Input #0, matroska,webm, from 'F:\Convert\files\Glass.Heart.s01e01.HD1080p.WEBRip.Rus.AniDub.com_HEVC(72).mkv':
  Metadata:
    COMPATIBLE_BRANDS: mp42mp41
    MAJOR_BRAND     : mp42
    MINOR_VERSION   : 0
    ENCODER         : Lavf61.7.100
  Duration: 00:50:36.22, start: -0.021000, bitrate: 3173 kb/s
  Stream #0:0(eng): Video: hevc (Main 10), yuv420p10le(tv, progressive), 1920x1080 [SAR 1:1 DAR 16:9], 23.98 fps, 23.98 tbr, 1k tbn (default)
      Metadata:
        HANDLER_NAME    : Mainconcept Video Media Handler
        VENDOR_ID       : [0][0][0][0]
        ENCODER         : Lavc61.19.100 libx265
        BPS             : 2975477
        DURATION        : 00:50:36.199708333
        NUMBER_OF_FRAMES: 72796
        NUMBER_OF_BYTES : 1129267631
        _STATISTICS_WRITING_APP: mkvpropedit v94.0 ('Initiate') 64-bit
        _STATISTICS_WRITING_DATE_UTC: 2026-03-27 13:03:01
        _STATISTICS_TAGS: BPS DURATION NUMBER_OF_FRAMES NUMBER_OF_BYTES
  Stream #0:1(eng): Audio: aac (LC), 48000 Hz, stereo, fltp (default)
      Metadata:
        HANDLER_NAME    : #Mainconcept MP4 Sound Media Handler
        VENDOR_ID       : [0][0][0][0]
        ENCODER         : Lavc61.19.100 aac
        BPS             : 194323
        DURATION        : 00:50:36.202000000
        NUMBER_OF_FRAMES: 142323
        NUMBER_OF_BYTES : 73750565
        _STATISTICS_WRITING_APP: mkvpropedit v94.0 ('Initiate') 64-bit
        _STATISTICS_WRITING_DATE_UTC: 2026-03-27 13:03:01
        _STATISTICS_TAGS: BPS DURATION NUMBER_OF_FRAMES NUMBER_OF_BYTES
Input #1, mov,mp4,m4a,3gp,3g2,mj2, from 'F:\Convert\files\Glass.Heart.s01e01.HD1080p.WEBRip.Rus.AniDub.com.mp4':
  Metadata:
    major_brand     : mp42
    minor_version   : 0
    compatible_brands: mp42mp41
    creation_time   : 2025-07-31T12:05:51.000000Z
  Duration: 00:50:36.20, start: 0.000000, bitrate: 7219 kb/s
  Stream #1:0[0x1](eng): Video: h264 (Main) (avc1 / 0x31637661), yuv420p(progressive), 1920x1080 [SAR 1:1 DAR 16:9], 6835 kb/s, 23.98 fps, 23.98 tbr, 24k tbn (default)
      Metadata:
        creation_time   : 2025-07-31T12:05:51.000000Z
        handler_name    : Mainconcept Video Media Handler
        vendor_id       : [0][0][0][0]
        encoder         : AVC Coding
  Stream #1:1[0x2](eng): Audio: aac (LC) (mp4a / 0x6134706D), 48000 Hz, stereo, fltp, 381 kb/s (default)
      Metadata:
        creation_time   : 2025-07-31T12:05:51.000000Z
        handler_name    : #Mainconcept MP4 Sound Media Handler
        vendor_id       : [0][0][0][0]
Stream mapping:
  Stream #0:0 (hevc) -> settb:default
  Stream #1:0 (h264) -> settb:default
  ssim:default -> Stream #0:0 (wrapped_avframe)
  Stream #0:1 -> #0:1 (aac (native) -> pcm_s16le (native))
Output #0, null, to 'pipe:':
  Metadata:
    COMPATIBLE_BRANDS: mp42mp41
    MAJOR_BRAND     : mp42
    MINOR_VERSION   : 0
    encoder         : Lavf61.7.100
  Stream #0:0: Video: wrapped_avframe, yuv420p10le(tv, progressive), 1920x1080 [SAR 1:1 DAR 16:9], q=2-31, 200 kb/s, 23.98 fps, 23.98 tbn
      Metadata:
        encoder         : Lavc61.19.100 wrapped_avframe
  Stream #0:1(eng): Audio: pcm_s16le, 48000 Hz, stereo, s16, 1536 kb/s (default)
      Metadata:
        HANDLER_NAME    : #Mainconcept MP4 Sound Media Handler
        VENDOR_ID       : [0][0][0][0]
        _STATISTICS_TAGS: BPS DURATION NUMBER_OF_FRAMES NUMBER_OF_BYTES
        BPS             : 194323
        DURATION        : 00:50:36.202000000
        NUMBER_OF_FRAMES: 142323
        NUMBER_OF_BYTES : 73750565
        _STATISTICS_WRITING_APP: mkvpropedit v94.0 ('Initiate') 64-bit
        _STATISTICS_WRITING_DATE_UTC: 2026-03-27 13:03:01
        encoder         : Lavc61.19.100 pcm_s16le
frame=  170 fps=0.0 q=-0.0 size=N/A time=00:00:07.09 bitrate=N/A speed=14.1x    frame=  372 fps=361 q=-0.0 size=N/A time=00:00:15.51 bitrate=N/A speed=15.1x    frame=  498 fps=323 q=-0.0 size=N/A time=00:00:20.77 bitrate=N/A speed=13.5x    frame=  633 fps=308 q=-0.0 size=N/A time=00:00:26.40 bitrate=N/A speed=12.9x    frame=  748 fps=292 q=-0.0 size=N/A time=00:00:31.19 bitrate=N/A speed=12.2x    frame=  868 fps=281 q=-0.0 size=N/A time=00:00:36.20 bitrate=N/A speed=11.7x    frame= 1018 fps=282 q=-0.0 size=N/A time=00:00:42.45 bitrate=N/A speed=11.8x    frame= 1180 fps=287 q=-0.0 size=N/A time=00:00:49.21 bitrate=N/A speed=  12x    frame= 1342 fps=290 q=-0.0 size=N/A time=00:00:55.97 bitrate=N/A speed=12.1x    frame= 1508 fps=293 q=-0.0 size=N/A time=00:01:02.89 bitrate=N/A speed=12.2x    frame= 1642 fps=290 q=-0.0 size=N/A time=00:01:08.48 bitrate=N/A speed=12.1x    frame= 1812 fps=293 q=-0.0 size=N/A time=00:01:15.57 bitrate=N/A speed=12.2x    frame= 1967 fps=294 q=-0.0 size=N/A time=00:01:22.04 bitrate=N/A speed=12.3x    frame= 2084 fps=289 q=-0.0 size=N/A time=00:01:26.92 bitrate=N/A speed=  12x    frame= 2223 fps=288 q=-0.0 size=N/A time=00:01:32.71 bitrate=N/A speed=  12x    frame= 2423 fps=294 q=-0.0 size=N/A time=00:01:41.05 bitrate=N/A speed=12.3x    frame= 2584 fps=295 q=-0.0 size=N/A time=00:01:47.77 bitrate=N/A speed=12.3x    frame= 2751 fps=296 q=-0.0 size=N/A time=00:01:54.73 bitrate=N/A speed=12.4x    frame= 2927 fps=299 q=-0.0 size=N/A time=00:02:02.08 bitrate=N/A speed=12.5x    frame= 3104 fps=301 q=-0.0 size=N/A time=00:02:09.46 bitrate=N/A speed=12.6x    frame= 3268 fps=302 q=-0.0 size=N/A time=00:02:16.30 bitrate=N/A speed=12.6x    frame= 3418 fps=301 q=-0.0 size=N/A time=00:02:22.55 bitrate=N/A speed=12.6x    frame= 3562 fps=300 q=-0.0 size=N/A time=00:02:28.56 bitrate=N/A speed=12.5x    frame= 3710 fps=300 q=-0.0 size=N/A time=00:02:34.73 bitrate=N/A speed=12.5x    frame= 3888 fps=302 q=-0.0 size=N/A time=00:02:42.16 bitrate=N/A speed=12.6x    frame= 4037 fps=301 q=-0.0 size=N/A time=00:02:48.37 bitrate=N/A speed=12.6x    frame= 4201 fps=302 q=-0.0 size=N/A time=00:02:55.21 bitrate=N/A speed=12.6x    frame= 4362 fps=302 q=-0.0 size=N/A time=00:03:01.93 bitrate=N/A speed=12.6x    frame= 4513 fps=302 q=-0.0 size=N/A time=00:03:08.22 bitrate=N/A speed=12.6x    frame= 4694 fps=303 q=-0.0 size=N/A time=00:03:15.77 bitrate=N/A speed=12.7x    frame= 4873 fps=305 q=-0.0 size=N/A time=00:03:23.24 bitrate=N/A speed=12.7x    frame= 5043 fps=306 q=-0.0 size=N/A time=00:03:30.33 bitrate=N/A speed=12.8x    frame= 5207 fps=306 q=-0.0 size=N/A time=00:03:37.17 bitrate=N/A speed=12.8x    frame= 5366 fps=306 q=-0.0 size=N/A time=00:03:43.80 bitrate=N/A speed=12.8x    frame= 5535 fps=307 q=-0.0 size=N/A time=00:03:50.85 bitrate=N/A speed=12.8x    frame= 5693 fps=307 q=-0.0 size=N/A time=00:03:57.44 bitrate=N/A speed=12.8x    frame= 5857 fps=307 q=-0.0 size=N/A time=00:04:04.28 bitrate=N/A speed=12.8x    frame= 6045 fps=309 q=-0.0 size=N/A time=00:04:12.12 bitrate=N/A speed=12.9x    frame= 6218 fps=309 q=-0.0 size=N/A time=00:04:19.34 bitrate=N/A speed=12.9x    frame= 6378 fps=309 q=-0.0 size=N/A time=00:04:26.01 bitrate=N/A speed=12.9x    frame= 6548 fps=310 q=-0.0 size=N/A time=00:04:33.10 bitrate=N/A speed=12.9x    frame= 6711 fps=310 q=-0.0 size=N/A time=00:04:39.90 bitrate=N/A speed=12.9x    frame= 6869 fps=310 q=-0.0 size=N/A time=00:04:46.49 bitrate=N/A speed=12.9x    frame= 7026 fps=310 q=-0.0 size=N/A time=00:04:53.04 bitrate=N/A speed=12.9x    frame= 7197 fps=310 q=-0.0 size=N/A time=00:05:00.17 bitrate=N/A speed=12.9x    frame= 7355 fps=310 q=-0.0 size=N/A time=00:05:06.76 bitrate=N/A speed=12.9x    frame= 7517 fps=310 q=-0.0 size=N/A time=00:05:13.52 bitrate=N/A speed=12.9x    frame= 7681 fps=310 q=-0.0 size=N/A time=00:05:20.36 bitrate=N/A speed=12.9x    frame= 7863 fps=311 q=-0.0 size=N/A time=00:05:27.95 bitrate=N/A speed=  13x    frame= 8071 fps=313 q=-0.0 size=N/A time=00:05:36.62 bitrate=N/A speed=13.1x    frame= 8240 fps=313 q=-0.0 size=N/A time=00:05:43.67 bitrate=N/A speed=13.1x    frame= 8411 fps=314 q=-0.0 size=N/A time=00:05:50.80 bitrate=N/A speed=13.1x    frame= 8601 fps=315 q=-0.0 size=N/A time=00:05:58.73 bitrate=N/A speed=13.1x    frame= 8798 fps=316 q=-0.0 size=N/A time=00:06:06.94 bitrate=N/A speed=13.2x    frame= 8989 fps=317 q=-0.0 size=N/A time=00:06:14.91 bitrate=N/A speed=13.2x    frame= 9188 fps=318 q=-0.0 size=N/A time=00:06:23.21 bitrate=N/A speed=13.3x    frame= 9367 fps=319 q=-0.0 size=N/A time=00:06:30.68 bitrate=N/A speed=13.3x    frame= 9543 fps=319 q=-0.0 size=N/A time=00:06:38.02 bitrate=N/A speed=13.3x    frame= 9727 fps=320 q=-0.0 size=N/A time=00:06:45.69 bitrate=N/A speed=13.3x    frame= 9897 fps=320 q=-0.0 size=N/A time=00:06:52.78 bitrate=N/A speed=13.3x    frame=10073 fps=320 q=-0.0 size=N/A time=00:07:00.12 bitrate=N/A speed=13.4x    frame=10258 fps=321 q=-0.0 size=N/A time=00:07:07.84 bitrate=N/A speed=13.4x    frame=10456 fps=322 q=-0.0 size=N/A time=00:07:16.10 bitrate=N/A speed=13.4x    frame=10666 fps=323 q=-0.0 size=N/A time=00:07:24.86 bitrate=N/A speed=13.5x    frame=10882 fps=325 q=-0.0 size=N/A time=00:07:33.87 bitrate=N/A speed=13.5x    frame=11085 fps=326 q=-0.0 size=N/A time=00:07:42.33 bitrate=N/A speed=13.6x    frame=11289 fps=327 q=-0.0 size=N/A time=00:07:50.84 bitrate=N/A speed=13.6x    frame=11507 fps=328 q=-0.0 size=N/A time=00:07:59.93 bitrate=N/A speed=13.7x    frame=11714 fps=329 q=-0.0 size=N/A time=00:08:08.57 bitrate=N/A speed=13.7x    frame=11910 fps=330 q=-0.0 size=N/A time=00:08:16.74 bitrate=N/A speed=13.8x    frame=12113 fps=331 q=-0.0 size=N/A time=00:08:25.21 bitrate=N/A speed=13.8x    frame=12298 fps=331 q=-0.0 size=N/A time=00:08:32.92 bitrate=N/A speed=13.8x    frame=12485 fps=332 q=-0.0 size=N/A time=00:08:40.72 bitrate=N/A speed=13.8x    frame=12680 fps=332 q=-0.0 size=N/A time=00:08:48.86 bitrate=N/A speed=13.9x    frame=12879 fps=333 q=-0.0 size=N/A time=00:08:57.16 bitrate=N/A speed=13.9x    frame=13091 fps=334 q=-0.0 size=N/A time=00:09:06.00 bitrate=N/A speed=13.9x    frame=13301 fps=335 q=-0.0 size=N/A time=00:09:14.76 bitrate=N/A speed=  14x    frame=13508 fps=335 q=-0.0 size=N/A time=00:09:23.39 bitrate=N/A speed=  14x    frame=13716 fps=336 q=-0.0 size=N/A time=00:09:32.07 bitrate=N/A speed=  14x    frame=13920 fps=337 q=-0.0 size=N/A time=00:09:40.58 bitrate=N/A speed=14.1x    frame=14127 fps=338 q=-0.0 size=N/A time=00:09:49.21 bitrate=N/A speed=14.1x    frame=14343 fps=339 q=-0.0 size=N/A time=00:09:58.22 bitrate=N/A speed=14.1x    frame=14551 fps=340 q=-0.0 size=N/A time=00:10:06.89 bitrate=N/A speed=14.2x    frame=14761 fps=341 q=-0.0 size=N/A time=00:10:15.65 bitrate=N/A speed=14.2x    frame=14948 fps=341 q=-0.0 size=N/A time=00:10:23.45 bitrate=N/A speed=14.2x    frame=15106 fps=340 q=-0.0 size=N/A time=00:10:30.04 bitrate=N/A speed=14.2x    frame=15242 fps=339 q=-0.0 size=N/A time=00:10:35.71 bitrate=N/A speed=14.2x    frame=15380 fps=339 q=-0.0 size=N/A time=00:10:41.47 bitrate=N/A speed=14.1x    frame=15556 fps=339 q=-0.0 size=N/A time=00:10:48.81 bitrate=N/A speed=14.1x    frame=15743 fps=339 q=-0.0 size=N/A time=00:10:56.61 bitrate=N/A speed=14.1x    frame=15903 fps=339 q=-0.0 size=N/A time=00:11:03.28 bitrate=N/A speed=14.1x    frame=16044 fps=338 q=-0.0 size=N/A time=00:11:09.16 bitrate=N/A speed=14.1x    frame=16189 fps=337 q=-0.0 size=N/A time=00:11:15.21 bitrate=N/A speed=14.1x    frame=16313 fps=336 q=-0.0 size=N/A time=00:11:20.38 bitrate=N/A speed=  14x    frame=16453 fps=336 q=-0.0 size=N/A time=00:11:26.22 bitrate=N/A speed=  14x    frame=16596 fps=335 q=-0.0 size=N/A time=00:11:32.19 bitrate=N/A speed=  14x    frame=16734 fps=334 q=-0.0 size=N/A time=00:11:37.94 bitrate=N/A speed=13.9x    frame=16936 fps=335 q=-0.0 size=N/A time=00:11:46.37 bitrate=N/A speed=  14x    frame=17140 fps=335 q=-0.0 size=N/A time=00:11:54.88 bitrate=N/A speed=  14x    frame=17335 fps=336 q=-0.0 size=N/A time=00:12:03.01 bitrate=N/A speed=  14x    frame=17544 fps=337 q=-0.0 size=N/A time=00:12:11.73 bitrate=N/A speed=  14x    frame=17754 fps=337 q=-0.0 size=N/A time=00:12:20.48 bitrate=N/A speed=14.1x    frame=17960 fps=338 q=-0.0 size=N/A time=00:12:29.08 bitrate=N/A speed=14.1x    frame=18164 fps=338 q=-0.0 size=N/A time=00:12:37.59 bitrate=N/A speed=14.1x    frame=18379 fps=339 q=-0.0 size=N/A time=00:12:46.55 bitrate=N/A speed=14.1x    frame=18590 fps=340 q=-0.0 size=N/A time=00:12:55.35 bitrate=N/A speed=14.2x    frame=18788 fps=340 q=-0.0 size=N/A time=00:13:03.61 bitrate=N/A speed=14.2x    frame=18979 fps=340 q=-0.0 size=N/A time=00:13:11.58 bitrate=N/A speed=14.2x    frame=19188 fps=341 q=-0.0 size=N/A time=00:13:20.29 bitrate=N/A speed=14.2x    frame=19396 fps=342 q=-0.0 size=N/A time=00:13:28.97 bitrate=N/A speed=14.2x    frame=19582 fps=342 q=-0.0 size=N/A time=00:13:36.73 bitrate=N/A speed=14.3x    frame=19774 fps=342 q=-0.0 size=N/A time=00:13:44.74 bitrate=N/A speed=14.3x    frame=19968 fps=342 q=-0.0 size=N/A time=00:13:52.83 bitrate=N/A speed=14.3x    frame=20171 fps=343 q=-0.0 size=N/A time=00:14:01.29 bitrate=N/A speed=14.3x    frame=20376 fps=343 q=-0.0 size=N/A time=00:14:09.84 bitrate=N/A speed=14.3x    frame=20573 fps=344 q=-0.0 size=N/A time=00:14:18.06 bitrate=N/A speed=14.3x    frame=20786 fps=344 q=-0.0 size=N/A time=00:14:26.94 bitrate=N/A speed=14.4x    frame=21009 fps=345 q=-0.0 size=N/A time=00:14:36.25 bitrate=N/A speed=14.4x    frame=21208 fps=345 q=-0.0 size=N/A time=00:14:44.55 bitrate=N/A speed=14.4x    frame=21421 fps=346 q=-0.0 size=N/A time=00:14:53.43 bitrate=N/A speed=14.4x    frame=21622 fps=346 q=-0.0 size=N/A time=00:15:01.81 bitrate=N/A speed=14.4x    frame=21829 fps=347 q=-0.0 size=N/A time=00:15:10.45 bitrate=N/A speed=14.5x    frame=22035 fps=347 q=-0.0 size=N/A time=00:15:19.04 bitrate=N/A speed=14.5x    frame=22247 fps=348 q=-0.0 size=N/A time=00:15:27.88 bitrate=N/A speed=14.5x    frame=22448 fps=348 q=-0.0 size=N/A time=00:15:36.26 bitrate=N/A speed=14.5x    frame=22654 fps=348 q=-0.0 size=N/A time=00:15:44.86 bitrate=N/A speed=14.5x    frame=22859 fps=349 q=-0.0 size=N/A time=00:15:53.41 bitrate=N/A speed=14.5x    frame=23059 fps=349 q=-0.0 size=N/A time=00:16:01.75 bitrate=N/A speed=14.6x    frame=23247 fps=349 q=-0.0 size=N/A time=00:16:09.59 bitrate=N/A speed=14.6x    frame=23445 fps=349 q=-0.0 size=N/A time=00:16:17.85 bitrate=N/A speed=14.6x    frame=23619 fps=349 q=-0.0 size=N/A time=00:16:25.10 bitrate=N/A speed=14.6x    frame=23802 fps=349 q=-0.0 size=N/A time=00:16:32.74 bitrate=N/A speed=14.6x    frame=23970 fps=349 q=-0.0 size=N/A time=00:16:39.74 bitrate=N/A speed=14.6x    frame=24166 fps=349 q=-0.0 size=N/A time=00:16:47.92 bitrate=N/A speed=14.6x    frame=24357 fps=350 q=-0.0 size=N/A time=00:16:55.88 bitrate=N/A speed=14.6x    frame=24541 fps=350 q=-0.0 size=N/A time=00:17:03.56 bitrate=N/A speed=14.6x    frame=24734 fps=350 q=-0.0 size=N/A time=00:17:11.61 bitrate=N/A speed=14.6x    frame=24912 fps=350 q=-0.0 size=N/A time=00:17:19.03 bitrate=N/A speed=14.6x    frame=25035 fps=349 q=-0.0 size=N/A time=00:17:24.16 bitrate=N/A speed=14.6x    frame=25170 fps=348 q=-0.0 size=N/A time=00:17:29.79 bitrate=N/A speed=14.5x    frame=25280 fps=347 q=-0.0 size=N/A time=00:17:34.38 bitrate=N/A speed=14.5x    frame=25399 fps=347 q=-0.0 size=N/A time=00:17:39.34 bitrate=N/A speed=14.5x    frame=25530 fps=346 q=-0.0 size=N/A time=00:17:44.81 bitrate=N/A speed=14.4x    frame=25658 fps=345 q=-0.0 size=N/A time=00:17:50.15 bitrate=N/A speed=14.4x    frame=25774 fps=344 q=-0.0 size=N/A time=00:17:54.99 bitrate=N/A speed=14.4x    frame=25899 fps=344 q=-0.0 size=N/A time=00:18:00.20 bitrate=N/A speed=14.3x    frame=26084 fps=344 q=-0.0 size=N/A time=00:18:07.92 bitrate=N/A speed=14.3x    frame=26267 fps=344 q=-0.0 size=N/A time=00:18:15.55 bitrate=N/A speed=14.3x    frame=26456 fps=344 q=-0.0 size=N/A time=00:18:23.43 bitrate=N/A speed=14.3x    frame=26612 fps=344 q=-0.0 size=N/A time=00:18:29.94 bitrate=N/A speed=14.3x    frame=26787 fps=344 q=-0.0 size=N/A time=00:18:37.24 bitrate=N/A speed=14.3x    frame=26978 fps=344 q=-0.0 size=N/A time=00:18:45.20 bitrate=N/A speed=14.3x    frame=27147 fps=344 q=-0.0 size=N/A time=00:18:52.25 bitrate=N/A speed=14.3x    frame=27311 fps=344 q=-0.0 size=N/A time=00:18:59.09 bitrate=N/A speed=14.3x    frame=27479 fps=343 q=-0.0 size=N/A time=00:19:06.10 bitrate=N/A speed=14.3x    frame=27656 fps=344 q=-0.0 size=N/A time=00:19:13.48 bitrate=N/A speed=14.3x    frame=27836 fps=344 q=-0.0 size=N/A time=00:19:20.99 bitrate=N/A speed=14.3x    frame=28036 fps=344 q=-0.0 size=N/A time=00:19:29.33 bitrate=N/A speed=14.3x    frame=28221 fps=344 q=-0.0 size=N/A time=00:19:37.05 bitrate=N/A speed=14.3x    frame=28402 fps=344 q=-0.0 size=N/A time=00:19:44.60 bitrate=N/A speed=14.3x    frame=28600 fps=344 q=-0.0 size=N/A time=00:19:52.85 bitrate=N/A speed=14.4x    frame=28800 fps=344 q=-0.0 size=N/A time=00:20:01.20 bitrate=N/A speed=14.4x    frame=28989 fps=345 q=-0.0 size=N/A time=00:20:09.08 bitrate=N/A speed=14.4x    frame=29152 fps=344 q=-0.0 size=N/A time=00:20:15.88 bitrate=N/A speed=14.4x    frame=29316 fps=344 q=-0.0 size=N/A time=00:20:22.72 bitrate=N/A speed=14.4x    frame=29481 fps=344 q=-0.0 size=N/A time=00:20:29.60 bitrate=N/A speed=14.4x    frame=29674 fps=344 q=-0.0 size=N/A time=00:20:37.65 bitrate=N/A speed=14.4x    frame=29854 fps=344 q=-0.0 size=N/A time=00:20:45.16 bitrate=N/A speed=14.4x    frame=30021 fps=344 q=-0.0 size=N/A time=00:20:52.12 bitrate=N/A speed=14.4x    frame=30181 fps=344 q=-0.0 size=N/A time=00:20:58.79 bitrate=N/A speed=14.3x    frame=30351 fps=344 q=-0.0 size=N/A time=00:21:05.88 bitrate=N/A speed=14.3x    frame=30530 fps=344 q=-0.0 size=N/A time=00:21:13.35 bitrate=N/A speed=14.3x    frame=30716 fps=344 q=-0.0 size=N/A time=00:21:21.11 bitrate=N/A speed=14.4x    frame=30917 fps=344 q=-0.0 size=N/A time=00:21:29.49 bitrate=N/A speed=14.4x    frame=31128 fps=345 q=-0.0 size=N/A time=00:21:38.29 bitrate=N/A speed=14.4x    frame=31341 fps=345 q=-0.0 size=N/A time=00:21:47.18 bitrate=N/A speed=14.4x    frame=31536 fps=345 q=-0.0 size=N/A time=00:21:55.31 bitrate=N/A speed=14.4x    frame=31748 fps=346 q=-0.0 size=N/A time=00:22:04.15 bitrate=N/A speed=14.4x    frame=31951 fps=346 q=-0.0 size=N/A time=00:22:12.62 bitrate=N/A speed=14.4x    frame=32156 fps=346 q=-0.0 size=N/A time=00:22:21.17 bitrate=N/A speed=14.4x    frame=32362 fps=347 q=-0.0 size=N/A time=00:22:29.76 bitrate=N/A speed=14.5x    frame=32564 fps=347 q=-0.0 size=N/A time=00:22:38.19 bitrate=N/A speed=14.5x    frame=32753 fps=347 q=-0.0 size=N/A time=00:22:46.07 bitrate=N/A speed=14.5x    frame=32967 fps=347 q=-0.0 size=N/A time=00:22:54.99 bitrate=N/A speed=14.5x    frame=33153 fps=347 q=-0.0 size=N/A time=00:23:02.75 bitrate=N/A speed=14.5x    frame=33322 fps=347 q=-0.0 size=N/A time=00:23:09.80 bitrate=N/A speed=14.5x    frame=33496 fps=347 q=-0.0 size=N/A time=00:23:17.06 bitrate=N/A speed=14.5x    frame=33666 fps=347 q=-0.0 size=N/A time=00:23:24.15 bitrate=N/A speed=14.5x    frame=33857 fps=347 q=-0.0 size=N/A time=00:23:32.11 bitrate=N/A speed=14.5x    frame=34037 fps=347 q=-0.0 size=N/A time=00:23:39.62 bitrate=N/A speed=14.5x    frame=34250 fps=347 q=-0.0 size=N/A time=00:23:48.51 bitrate=N/A speed=14.5x    frame=34450 fps=348 q=-0.0 size=N/A time=00:23:56.85 bitrate=N/A speed=14.5x    frame=34647 fps=348 q=-0.0 size=N/A time=00:24:05.06 bitrate=N/A speed=14.5x    frame=34831 fps=348 q=-0.0 size=N/A time=00:24:12.74 bitrate=N/A speed=14.5x    frame=35033 fps=348 q=-0.0 size=N/A time=00:24:21.16 bitrate=N/A speed=14.5x    frame=35245 fps=348 q=-0.0 size=N/A time=00:24:30.01 bitrate=N/A speed=14.5x    frame=35440 fps=349 q=-0.0 size=N/A time=00:24:38.14 bitrate=N/A speed=14.5x    frame=35604 fps=348 q=-0.0 size=N/A time=00:24:44.98 bitrate=N/A speed=14.5x    frame=35804 fps=349 q=-0.0 size=N/A time=00:24:53.32 bitrate=N/A speed=14.5x    frame=35988 fps=349 q=-0.0 size=N/A time=00:25:00.99 bitrate=N/A speed=14.5x    frame=36189 fps=349 q=-0.0 size=N/A time=00:25:09.38 bitrate=N/A speed=14.6x    frame=36392 fps=349 q=-0.0 size=N/A time=00:25:17.84 bitrate=N/A speed=14.6x    frame=36561 fps=349 q=-0.0 size=N/A time=00:25:24.89 bitrate=N/A speed=14.6x    frame=36717 fps=349 q=-0.0 size=N/A time=00:25:31.40 bitrate=N/A speed=14.5x    frame=36900 fps=349 q=-0.0 size=N/A time=00:25:39.03 bitrate=N/A speed=14.5x    frame=37069 fps=349 q=-0.0 size=N/A time=00:25:46.08 bitrate=N/A speed=14.5x    frame=37253 fps=349 q=-0.0 size=N/A time=00:25:53.76 bitrate=N/A speed=14.5x    frame=37420 fps=349 q=-0.0 size=N/A time=00:26:00.72 bitrate=N/A speed=14.5x    frame=37591 fps=348 q=-0.0 size=N/A time=00:26:07.85 bitrate=N/A speed=14.5x    frame=37758 fps=348 q=-0.0 size=N/A time=00:26:14.82 bitrate=N/A speed=14.5x    frame=37933 fps=348 q=-0.0 size=N/A time=00:26:22.12 bitrate=N/A speed=14.5x    frame=38101 fps=348 q=-0.0 size=N/A time=00:26:29.12 bitrate=N/A speed=14.5x    frame=38279 fps=348 q=-0.0 size=N/A time=00:26:36.55 bitrate=N/A speed=14.5x    frame=38443 fps=348 q=-0.0 size=N/A time=00:26:43.39 bitrate=N/A speed=14.5x    frame=38617 fps=348 q=-0.0 size=N/A time=00:26:50.65 bitrate=N/A speed=14.5x    frame=38813 fps=348 q=-0.0 size=N/A time=00:26:58.82 bitrate=N/A speed=14.5x    frame=38993 fps=348 q=-0.0 size=N/A time=00:27:06.33 bitrate=N/A speed=14.5x    frame=39182 fps=348 q=-0.0 size=N/A time=00:27:14.21 bitrate=N/A speed=14.5x    frame=39373 fps=348 q=-0.0 size=N/A time=00:27:22.18 bitrate=N/A speed=14.5x    frame=39549 fps=348 q=-0.0 size=N/A time=00:27:29.52 bitrate=N/A speed=14.5x    frame=39733 fps=348 q=-0.0 size=N/A time=00:27:37.19 bitrate=N/A speed=14.5x    frame=39912 fps=348 q=-0.0 size=N/A time=00:27:44.66 bitrate=N/A speed=14.5x    frame=40083 fps=348 q=-0.0 size=N/A time=00:27:51.79 bitrate=N/A speed=14.5x    frame=40248 fps=348 q=-0.0 size=N/A time=00:27:58.67 bitrate=N/A speed=14.5x    frame=40407 fps=348 q=-0.0 size=N/A time=00:28:05.30 bitrate=N/A speed=14.5x    frame=40575 fps=348 q=-0.0 size=N/A time=00:28:12.31 bitrate=N/A speed=14.5x    frame=40718 fps=348 q=-0.0 size=N/A time=00:28:18.27 bitrate=N/A speed=14.5x    frame=40916 fps=348 q=-0.0 size=N/A time=00:28:26.53 bitrate=N/A speed=14.5x    frame=41062 fps=347 q=-0.0 size=N/A time=00:28:32.62 bitrate=N/A speed=14.5x    frame=41231 fps=347 q=-0.0 size=N/A time=00:28:39.67 bitrate=N/A speed=14.5x    frame=41435 fps=348 q=-0.0 size=N/A time=00:28:48.18 bitrate=N/A speed=14.5x    frame=41585 fps=347 q=-0.0 size=N/A time=00:28:54.44 bitrate=N/A speed=14.5x    frame=41774 fps=347 q=-0.0 size=N/A time=00:29:02.32 bitrate=N/A speed=14.5x    frame=41964 fps=348 q=-0.0 size=N/A time=00:29:10.24 bitrate=N/A speed=14.5x    frame=42146 fps=348 q=-0.0 size=N/A time=00:29:17.83 bitrate=N/A speed=14.5x    frame=42326 fps=348 q=-0.0 size=N/A time=00:29:25.34 bitrate=N/A speed=14.5x    frame=42518 fps=348 q=-0.0 size=N/A time=00:29:33.35 bitrate=N/A speed=14.5x    frame=42704 fps=348 q=-0.0 size=N/A time=00:29:41.11 bitrate=N/A speed=14.5x    frame=42862 fps=348 q=-0.0 size=N/A time=00:29:47.70 bitrate=N/A speed=14.5x    frame=43001 fps=347 q=-0.0 size=N/A time=00:29:53.50 bitrate=N/A speed=14.5x    frame=43137 fps=347 q=-0.0 size=N/A time=00:29:59.17 bitrate=N/A speed=14.5x    frame=43273 fps=347 q=-0.0 size=N/A time=00:30:04.84 bitrate=N/A speed=14.5x    frame=43443 fps=346 q=-0.0 size=N/A time=00:30:11.93 bitrate=N/A speed=14.5x    frame=43603 fps=346 q=-0.0 size=N/A time=00:30:18.60 bitrate=N/A speed=14.4x    frame=43749 fps=346 q=-0.0 size=N/A time=00:30:24.69 bitrate=N/A speed=14.4x    frame=43886 fps=346 q=-0.0 size=N/A time=00:30:30.41 bitrate=N/A speed=14.4x    frame=44020 fps=345 q=-0.0 size=N/A time=00:30:36.00 bitrate=N/A speed=14.4x    frame=44154 fps=345 q=-0.0 size=N/A time=00:30:41.58 bitrate=N/A speed=14.4x    frame=44305 fps=345 q=-0.0 size=N/A time=00:30:47.88 bitrate=N/A speed=14.4x    frame=44430 fps=344 q=-0.0 size=N/A time=00:30:53.10 bitrate=N/A speed=14.4x    frame=44574 fps=344 q=-0.0 size=N/A time=00:30:59.10 bitrate=N/A speed=14.4x    frame=44736 fps=344 q=-0.0 size=N/A time=00:31:05.86 bitrate=N/A speed=14.3x    frame=44939 fps=344 q=-0.0 size=N/A time=00:31:14.33 bitrate=N/A speed=14.4x    frame=45138 fps=344 q=-0.0 size=N/A time=00:31:22.63 bitrate=N/A speed=14.4x    frame=45346 fps=345 q=-0.0 size=N/A time=00:31:31.30 bitrate=N/A speed=14.4x    frame=45544 fps=345 q=-0.0 size=N/A time=00:31:39.56 bitrate=N/A speed=14.4x    frame=45754 fps=345 q=-0.0 size=N/A time=00:31:48.32 bitrate=N/A speed=14.4x    frame=45963 fps=345 q=-0.0 size=N/A time=00:31:57.04 bitrate=N/A speed=14.4x    frame=46172 fps=345 q=-0.0 size=N/A time=00:32:05.75 bitrate=N/A speed=14.4x    frame=46390 fps=346 q=-0.0 size=N/A time=00:32:14.84 bitrate=N/A speed=14.4x    frame=46598 fps=346 q=-0.0 size=N/A time=00:32:23.52 bitrate=N/A speed=14.4x    frame=46793 fps=346 q=-0.0 size=N/A time=00:32:31.65 bitrate=N/A speed=14.4x    frame=46991 fps=346 q=-0.0 size=N/A time=00:32:39.91 bitrate=N/A speed=14.4x    frame=47204 fps=346 q=-0.0 size=N/A time=00:32:48.80 bitrate=N/A speed=14.5x    frame=47409 fps=347 q=-0.0 size=N/A time=00:32:57.35 bitrate=N/A speed=14.5x    frame=47622 fps=347 q=-0.0 size=N/A time=00:33:06.23 bitrate=N/A speed=14.5x    frame=47823 fps=347 q=-0.0 size=N/A time=00:33:14.61 bitrate=N/A speed=14.5x    frame=48027 fps=347 q=-0.0 size=N/A time=00:33:23.12 bitrate=N/A speed=14.5x    frame=48214 fps=347 q=-0.0 size=N/A time=00:33:30.92 bitrate=N/A speed=14.5x    frame=48401 fps=347 q=-0.0 size=N/A time=00:33:38.72 bitrate=N/A speed=14.5x    frame=48585 fps=347 q=-0.0 size=N/A time=00:33:46.39 bitrate=N/A speed=14.5x    frame=48773 fps=347 q=-0.0 size=N/A time=00:33:54.24 bitrate=N/A speed=14.5x    frame=48973 fps=348 q=-0.0 size=N/A time=00:34:02.58 bitrate=N/A speed=14.5x    frame=49153 fps=348 q=-0.0 size=N/A time=00:34:10.08 bitrate=N/A speed=14.5x    frame=49351 fps=348 q=-0.0 size=N/A time=00:34:18.34 bitrate=N/A speed=14.5x    frame=49556 fps=348 q=-0.0 size=N/A time=00:34:26.89 bitrate=N/A speed=14.5x    frame=49770 fps=348 q=-0.0 size=N/A time=00:34:35.82 bitrate=N/A speed=14.5x    frame=49962 fps=348 q=-0.0 size=N/A time=00:34:43.83 bitrate=N/A speed=14.5x    frame=50144 fps=348 q=-0.0 size=N/A time=00:34:51.42 bitrate=N/A speed=14.5x    frame=50321 fps=348 q=-0.0 size=N/A time=00:34:58.80 bitrate=N/A speed=14.5x    frame=50524 fps=348 q=-0.0 size=N/A time=00:35:07.27 bitrate=N/A speed=14.5x    frame=50721 fps=349 q=-0.0 size=N/A time=00:35:15.48 bitrate=N/A speed=14.5x    frame=50897 fps=348 q=-0.0 size=N/A time=00:35:22.82 bitrate=N/A speed=14.5x    frame=51092 fps=349 q=-0.0 size=N/A time=00:35:30.96 bitrate=N/A speed=14.5x    frame=51281 fps=349 q=-0.0 size=N/A time=00:35:38.84 bitrate=N/A speed=14.5x    frame=51435 fps=348 q=-0.0 size=N/A time=00:35:45.26 bitrate=N/A speed=14.5x    frame=51619 fps=349 q=-0.0 size=N/A time=00:35:52.94 bitrate=N/A speed=14.5x    frame=51823 fps=349 q=-0.0 size=N/A time=00:36:01.45 bitrate=N/A speed=14.5x    frame=52003 fps=349 q=-0.0 size=N/A time=00:36:08.95 bitrate=N/A speed=14.5x    frame=52202 fps=349 q=-0.0 size=N/A time=00:36:17.25 bitrate=N/A speed=14.5x    frame=52400 fps=349 q=-0.0 size=N/A time=00:36:25.51 bitrate=N/A speed=14.6x    frame=52587 fps=349 q=-0.0 size=N/A time=00:36:33.31 bitrate=N/A speed=14.6x    frame=52785 fps=349 q=-0.0 size=N/A time=00:36:41.57 bitrate=N/A speed=14.6x    frame=52971 fps=349 q=-0.0 size=N/A time=00:36:49.33 bitrate=N/A speed=14.6x    frame=53164 fps=349 q=-0.0 size=N/A time=00:36:57.38 bitrate=N/A speed=14.6x    frame=53359 fps=349 q=-0.0 size=N/A time=00:37:05.51 bitrate=N/A speed=14.6x    frame=53556 fps=349 q=-0.0 size=N/A time=00:37:13.73 bitrate=N/A speed=14.6x    frame=53752 fps=350 q=-0.0 size=N/A time=00:37:21.90 bitrate=N/A speed=14.6x    frame=53926 fps=349 q=-0.0 size=N/A time=00:37:29.16 bitrate=N/A speed=14.6x    frame=54097 fps=349 q=-0.0 size=N/A time=00:37:36.29 bitrate=N/A speed=14.6x    frame=54276 fps=349 q=-0.0 size=N/A time=00:37:43.76 bitrate=N/A speed=14.6x    frame=54443 fps=349 q=-0.0 size=N/A time=00:37:50.72 bitrate=N/A speed=14.6x    frame=54635 fps=349 q=-0.0 size=N/A time=00:37:58.73 bitrate=N/A speed=14.6x    frame=54815 fps=349 q=-0.0 size=N/A time=00:38:06.24 bitrate=N/A speed=14.6x    frame=54999 fps=349 q=-0.0 size=N/A time=00:38:13.91 bitrate=N/A speed=14.6x    frame=55202 fps=350 q=-0.0 size=N/A time=00:38:22.38 bitrate=N/A speed=14.6x    frame=55409 fps=350 q=-0.0 size=N/A time=00:38:31.01 bitrate=N/A speed=14.6x    frame=55614 fps=350 q=-0.0 size=N/A time=00:38:39.56 bitrate=N/A speed=14.6x    frame=55809 fps=350 q=-0.0 size=N/A time=00:38:47.70 bitrate=N/A speed=14.6x    frame=55995 fps=350 q=-0.0 size=N/A time=00:38:55.45 bitrate=N/A speed=14.6x    frame=56205 fps=350 q=-0.0 size=N/A time=00:39:04.21 bitrate=N/A speed=14.6x    frame=56402 fps=350 q=-0.0 size=N/A time=00:39:12.43 bitrate=N/A speed=14.6x    frame=56587 fps=350 q=-0.0 size=N/A time=00:39:20.14 bitrate=N/A speed=14.6x    frame=56763 fps=350 q=-0.0 size=N/A time=00:39:27.49 bitrate=N/A speed=14.6x    frame=56959 fps=350 q=-0.0 size=N/A time=00:39:35.66 bitrate=N/A speed=14.6x    frame=57156 fps=351 q=-0.0 size=N/A time=00:39:43.88 bitrate=N/A speed=14.6x    frame=57345 fps=351 q=-0.0 size=N/A time=00:39:51.76 bitrate=N/A speed=14.6x    frame=57520 fps=351 q=-0.0 size=N/A time=00:39:59.06 bitrate=N/A speed=14.6x    frame=57707 fps=351 q=-0.0 size=N/A time=00:40:06.86 bitrate=N/A speed=14.6x    frame=57912 fps=351 q=-0.0 size=N/A time=00:40:15.41 bitrate=N/A speed=14.6x    frame=58106 fps=351 q=-0.0 size=N/A time=00:40:23.50 bitrate=N/A speed=14.6x    frame=58306 fps=351 q=-0.0 size=N/A time=00:40:31.84 bitrate=N/A speed=14.6x    frame=58515 fps=351 q=-0.0 size=N/A time=00:40:40.56 bitrate=N/A speed=14.6x    frame=58750 fps=351 q=-0.0 size=N/A time=00:40:50.36 bitrate=N/A speed=14.7x    frame=58946 fps=351 q=-0.0 size=N/A time=00:40:58.53 bitrate=N/A speed=14.7x    frame=59166 fps=352 q=-0.0 size=N/A time=00:41:07.71 bitrate=N/A speed=14.7x    frame=59375 fps=352 q=-0.0 size=N/A time=00:41:16.43 bitrate=N/A speed=14.7x    frame=59562 fps=352 q=-0.0 size=N/A time=00:41:24.23 bitrate=N/A speed=14.7x    frame=59749 fps=352 q=-0.0 size=N/A time=00:41:32.03 bitrate=N/A speed=14.7x    frame=59914 fps=352 q=-0.0 size=N/A time=00:41:38.91 bitrate=N/A speed=14.7x    frame=60102 fps=352 q=-0.0 size=N/A time=00:41:46.75 bitrate=N/A speed=14.7x    frame=60291 fps=352 q=-0.0 size=N/A time=00:41:54.63 bitrate=N/A speed=14.7x    frame=60520 fps=352 q=-0.0 size=N/A time=00:42:04.18 bitrate=N/A speed=14.7x    frame=60729 fps=352 q=-0.0 size=N/A time=00:42:12.90 bitrate=N/A speed=14.7x    frame=60881 fps=352 q=-0.0 size=N/A time=00:42:19.24 bitrate=N/A speed=14.7x    frame=61070 fps=352 q=-0.0 size=N/A time=00:42:27.12 bitrate=N/A speed=14.7x    frame=61262 fps=352 q=-0.0 size=N/A time=00:42:35.13 bitrate=N/A speed=14.7x    frame=61456 fps=352 q=-0.0 size=N/A time=00:42:43.22 bitrate=N/A speed=14.7x    frame=61618 fps=352 q=-0.0 size=N/A time=00:42:49.98 bitrate=N/A speed=14.7x    frame=61806 fps=352 q=-0.0 size=N/A time=00:42:57.82 bitrate=N/A speed=14.7x    frame=62018 fps=352 q=-0.0 size=N/A time=00:43:06.66 bitrate=N/A speed=14.7x    frame=62218 fps=353 q=-0.0 size=N/A time=00:43:15.00 bitrate=N/A speed=14.7x    frame=62402 fps=353 q=-0.0 size=N/A time=00:43:22.68 bitrate=N/A speed=14.7x    frame=62573 fps=353 q=-0.0 size=N/A time=00:43:29.81 bitrate=N/A speed=14.7x    frame=62737 fps=352 q=-0.0 size=N/A time=00:43:36.65 bitrate=N/A speed=14.7x    frame=62930 fps=352 q=-0.0 size=N/A time=00:43:44.70 bitrate=N/A speed=14.7x    frame=63127 fps=353 q=-0.0 size=N/A time=00:43:52.92 bitrate=N/A speed=14.7x    frame=63330 fps=353 q=-0.0 size=N/A time=00:44:01.38 bitrate=N/A speed=14.7x    frame=63518 fps=353 q=-0.0 size=N/A time=00:44:09.22 bitrate=N/A speed=14.7x    frame=63717 fps=353 q=-0.0 size=N/A time=00:44:17.52 bitrate=N/A speed=14.7x    frame=63918 fps=353 q=-0.0 size=N/A time=00:44:25.91 bitrate=N/A speed=14.7x    frame=64066 fps=353 q=-0.0 size=N/A time=00:44:32.08 bitrate=N/A speed=14.7x    frame=64262 fps=353 q=-0.0 size=N/A time=00:44:40.26 bitrate=N/A speed=14.7x    frame=64447 fps=353 q=-0.0 size=N/A time=00:44:47.97 bitrate=N/A speed=14.7x    frame=64636 fps=353 q=-0.0 size=N/A time=00:44:55.85 bitrate=N/A speed=14.7x    frame=64803 fps=353 q=-0.0 size=N/A time=00:45:02.82 bitrate=N/A speed=14.7x    frame=64987 fps=353 q=-0.0 size=N/A time=00:45:10.49 bitrate=N/A speed=14.7x    frame=65183 fps=353 q=-0.0 size=N/A time=00:45:18.67 bitrate=N/A speed=14.7x    frame=65392 fps=353 q=-0.0 size=N/A time=00:45:27.39 bitrate=N/A speed=14.7x    frame=65587 fps=353 q=-0.0 size=N/A time=00:45:35.52 bitrate=N/A speed=14.7x    frame=65791 fps=353 q=-0.0 size=N/A time=00:45:44.03 bitrate=N/A speed=14.7x    frame=65985 fps=353 q=-0.0 size=N/A time=00:45:52.12 bitrate=N/A speed=14.7x    frame=66170 fps=353 q=-0.0 size=N/A time=00:45:59.84 bitrate=N/A speed=14.7x    frame=66327 fps=353 q=-0.0 size=N/A time=00:46:06.38 bitrate=N/A speed=14.7x    frame=66471 fps=353 q=-0.0 size=N/A time=00:46:12.39 bitrate=N/A speed=14.7x    frame=66655 fps=353 q=-0.0 size=N/A time=00:46:20.06 bitrate=N/A speed=14.7x    frame=66868 fps=353 q=-0.0 size=N/A time=00:46:28.95 bitrate=N/A speed=14.7x    frame=67113 fps=353 q=-0.0 size=N/A time=00:46:39.17 bitrate=N/A speed=14.7x    frame=67363 fps=354 q=-0.0 size=N/A time=00:46:49.59 bitrate=N/A speed=14.8x    frame=67613 fps=354 q=-0.0 size=N/A time=00:47:00.02 bitrate=N/A speed=14.8x    frame=67865 fps=354 q=-0.0 size=N/A time=00:47:10.53 bitrate=N/A speed=14.8x    frame=68108 fps=355 q=-0.0 size=N/A time=00:47:20.67 bitrate=N/A speed=14.8x    frame=68362 fps=355 q=-0.0 size=N/A time=00:47:31.26 bitrate=N/A speed=14.8x    frame=68609 fps=356 q=-0.0 size=N/A time=00:47:41.56 bitrate=N/A speed=14.8x    frame=68870 fps=356 q=-0.0 size=N/A time=00:47:52.45 bitrate=N/A speed=14.8x    frame=69119 fps=356 q=-0.0 size=N/A time=00:48:02.83 bitrate=N/A speed=14.9x    frame=69361 fps=357 q=-0.0 size=N/A time=00:48:12.93 bitrate=N/A speed=14.9x    frame=69604 fps=357 q=-0.0 size=N/A time=00:48:23.06 bitrate=N/A speed=14.9x    frame=69854 fps=357 q=-0.0 size=N/A time=00:48:33.49 bitrate=N/A speed=14.9x    frame=70098 fps=357 q=-0.0 size=N/A time=00:48:43.67 bitrate=N/A speed=14.9x    frame=70342 fps=358 q=-0.0 size=N/A time=00:48:53.84 bitrate=N/A speed=14.9x    frame=70582 fps=358 q=-0.0 size=N/A time=00:49:03.85 bitrate=N/A speed=14.9x    frame=70832 fps=358 q=-0.0 size=N/A time=00:49:14.28 bitrate=N/A speed=14.9x    frame=71077 fps=359 q=-0.0 size=N/A time=00:49:24.50 bitrate=N/A speed=  15x    frame=71332 fps=359 q=-0.0 size=N/A time=00:49:35.13 bitrate=N/A speed=  15x    frame=71540 fps=359 q=-0.0 size=N/A time=00:49:43.81 bitrate=N/A speed=  15x    frame=71793 fps=360 q=-0.0 size=N/A time=00:49:54.36 bitrate=N/A speed=  15x    frame=72040 fps=360 q=-0.0 size=N/A time=00:50:04.66 bitrate=N/A speed=  15x    frame=72291 fps=360 q=-0.0 size=N/A time=00:50:15.13 bitrate=N/A speed=  15x    frame=72548 fps=360 q=-0.0 size=N/A time=00:50:25.85 bitrate=N/A speed=  15x    [Parsed_ssim_14 @ 000002cdfeb6d9c0] SSIM Y:0.994438 (22.547365) U:0.995040 (23.045436) V:0.993865 (22.121822) All:0.994443 (22.551281)
[out#0/null @ 000002cde899eec0] video:31280KiB audio:569292KiB subtitle:0KiB other streams:0KiB global headers:0KiB muxing overhead: unknown
frame=72796 fps=361 q=-0.0 Lsize=N/A time=00:50:36.19 bitrate=N/A speed=  15x    
